<mxfile host="Electron" modified="2023-04-10T09:43:52.276Z" agent="Mozilla/5.0 (X11; Linux x86_64) AppleWebKit/537.36 (KHTML, like Gecko) draw.io/21.1.2 Chrome/106.0.5249.199 Electron/21.4.3 Safari/537.36" etag="VcF2QpVZJWLA061C-UHL" version="21.1.2" type="device">
  <diagram name="Page-1" id="NuQUP7Gb7e82TSMQkZVS">
    <mxGraphModel dx="1114" dy="1027" grid="1" gridSize="10" guides="1" tooltips="1" connect="1" arrows="1" fold="1" page="1" pageScale="1" pageWidth="850" pageHeight="1100" math="0" shadow="0">
      <root>
        <mxCell id="0" />
        <mxCell id="1" parent="0" />
        <mxCell id="y_wzQ5EHkPusBBxn_sSv-1" value="CORE FRAMEWORK&lt;br&gt;" style="rounded=0;strokeWidth=4;fillColor=#fad7ac;strokeColor=#b46504;shadow=0;glass=0;labelPosition=center;verticalLabelPosition=middle;align=center;verticalAlign=top;labelBackgroundColor=none;labelBorderColor=none;fontColor=default;whiteSpace=wrap;html=1;fontStyle=1" vertex="1" parent="1">
          <mxGeometry x="40" y="440" width="680" height="160" as="geometry" />
        </mxCell>
        <mxCell id="y_wzQ5EHkPusBBxn_sSv-32" style="edgeStyle=orthogonalEdgeStyle;rounded=0;orthogonalLoop=1;jettySize=auto;html=1;" edge="1" parent="1" source="y_wzQ5EHkPusBBxn_sSv-2" target="y_wzQ5EHkPusBBxn_sSv-8">
          <mxGeometry relative="1" as="geometry">
            <Array as="points">
              <mxPoint x="113" y="420" />
              <mxPoint x="100" y="420" />
            </Array>
          </mxGeometry>
        </mxCell>
        <mxCell id="y_wzQ5EHkPusBBxn_sSv-2" value="&lt;font style=&quot;font-size: 14px;&quot;&gt;&lt;b&gt;Graphics API&lt;/b&gt;&lt;/font&gt;" style="whiteSpace=wrap;html=1;aspect=fixed;fillColor=#b0e3e6;strokeColor=#0e8088;strokeWidth=3;" vertex="1" parent="1">
          <mxGeometry x="60" y="470" width="105" height="105" as="geometry" />
        </mxCell>
        <mxCell id="y_wzQ5EHkPusBBxn_sSv-3" value="RenderGraph" style="whiteSpace=wrap;html=1;aspect=fixed;fillColor=#b0e3e6;strokeColor=#0e8088;strokeWidth=3;fontSize=14;fontStyle=1" vertex="1" parent="1">
          <mxGeometry x="195" y="470" width="105" height="105" as="geometry" />
        </mxCell>
        <mxCell id="y_wzQ5EHkPusBBxn_sSv-4" value="&lt;font style=&quot;&quot;&gt;&lt;font style=&quot;font-size: 14px;&quot;&gt;&lt;b&gt;Scene&lt;br&gt;&lt;/b&gt;&lt;/font&gt;&lt;font style=&quot;font-size: 14px;&quot;&gt;&lt;b&gt;System&lt;/b&gt;&lt;/font&gt;&lt;br&gt;&lt;/font&gt;" style="whiteSpace=wrap;html=1;aspect=fixed;fillColor=#b0e3e6;strokeColor=#0e8088;strokeWidth=3;" vertex="1" parent="1">
          <mxGeometry x="590" y="470" width="105" height="105" as="geometry" />
        </mxCell>
        <mxCell id="y_wzQ5EHkPusBBxn_sSv-5" value="&lt;b&gt;&lt;font style=&quot;font-size: 14px;&quot;&gt;Texture&lt;br&gt;System&lt;/font&gt;&lt;/b&gt;" style="whiteSpace=wrap;html=1;aspect=fixed;fillColor=#b0e3e6;strokeColor=#0e8088;strokeWidth=3;" vertex="1" parent="1">
          <mxGeometry x="327.5" y="470" width="105" height="105" as="geometry" />
        </mxCell>
        <mxCell id="y_wzQ5EHkPusBBxn_sSv-7" value="&lt;b&gt;&lt;font style=&quot;font-size: 14px;&quot;&gt;Material&lt;br&gt;System&lt;/font&gt;&lt;/b&gt;" style="whiteSpace=wrap;html=1;aspect=fixed;fillColor=#b0e3e6;strokeColor=#0e8088;strokeWidth=3;" vertex="1" parent="1">
          <mxGeometry x="460" y="470" width="105" height="105" as="geometry" />
        </mxCell>
        <mxCell id="y_wzQ5EHkPusBBxn_sSv-8" value="&lt;b&gt;Vulkan / GFX&lt;/b&gt;" style="whiteSpace=wrap;html=1;aspect=fixed;fillColor=#fad7ac;strokeColor=#b46504;strokeWidth=3;" vertex="1" parent="1">
          <mxGeometry x="40" y="280" width="120" height="120" as="geometry" />
        </mxCell>
        <mxCell id="y_wzQ5EHkPusBBxn_sSv-10" value="&lt;b&gt;Render Passes&lt;/b&gt;" style="whiteSpace=wrap;html=1;aspect=fixed;fillColor=#d5e8d4;strokeColor=#82b366;strokeWidth=3;" vertex="1" parent="1">
          <mxGeometry x="320" y="280" width="120" height="120" as="geometry" />
        </mxCell>
        <mxCell id="y_wzQ5EHkPusBBxn_sSv-12" value="" style="endArrow=classic;startArrow=classic;html=1;rounded=0;entryX=0.5;entryY=1;entryDx=0;entryDy=0;" edge="1" parent="1" source="y_wzQ5EHkPusBBxn_sSv-1" target="y_wzQ5EHkPusBBxn_sSv-10">
          <mxGeometry width="50" height="50" relative="1" as="geometry">
            <mxPoint x="350" y="430" as="sourcePoint" />
            <mxPoint x="450" y="470" as="targetPoint" />
          </mxGeometry>
        </mxCell>
        <mxCell id="y_wzQ5EHkPusBBxn_sSv-15" value="&lt;b&gt;LAVA&lt;/b&gt;" style="rounded=0;whiteSpace=wrap;html=1;fillColor=#fad7ac;strokeColor=#b46504;strokeWidth=4;verticalAlign=top;" vertex="1" parent="1">
          <mxGeometry x="40" y="640" width="680" height="160" as="geometry" />
        </mxCell>
        <mxCell id="y_wzQ5EHkPusBBxn_sSv-18" value="&lt;font style=&quot;font-size: 14px;&quot;&gt;&lt;b&gt;Display&lt;br&gt;Drivers&lt;/b&gt;&lt;/font&gt;" style="whiteSpace=wrap;html=1;aspect=fixed;fillColor=#b0e3e6;strokeColor=#0e8088;strokeWidth=3;" vertex="1" parent="1">
          <mxGeometry x="60" y="665" width="105" height="105" as="geometry" />
        </mxCell>
        <mxCell id="y_wzQ5EHkPusBBxn_sSv-19" value="&lt;font style=&quot;font-size: 14px;&quot;&gt;&lt;b&gt;Scene&lt;br&gt;Importers&lt;/b&gt;&lt;/font&gt;" style="whiteSpace=wrap;html=1;aspect=fixed;fillColor=#b0e3e6;strokeColor=#0e8088;strokeWidth=3;" vertex="1" parent="1">
          <mxGeometry x="195" y="665" width="105" height="105" as="geometry" />
        </mxCell>
        <mxCell id="y_wzQ5EHkPusBBxn_sSv-21" value="&lt;b&gt;&lt;font style=&quot;font-size: 14px;&quot;&gt;3D Renderer&lt;/font&gt;&lt;/b&gt;" style="whiteSpace=wrap;html=1;aspect=fixed;fillColor=#b0e3e6;strokeColor=#0e8088;strokeWidth=3;" vertex="1" parent="1">
          <mxGeometry x="327.5" y="665" width="105" height="105" as="geometry" />
        </mxCell>
        <mxCell id="y_wzQ5EHkPusBBxn_sSv-22" value="&lt;b&gt;&lt;font style=&quot;font-size: 14px;&quot;&gt;AOV System&lt;/font&gt;&lt;/b&gt;" style="whiteSpace=wrap;html=1;aspect=fixed;strokeWidth=3;fillColor=#b0e3e6;strokeColor=#0e8088;" vertex="1" parent="1">
          <mxGeometry x="460" y="665" width="105" height="105" as="geometry" />
        </mxCell>
        <mxCell id="y_wzQ5EHkPusBBxn_sSv-23" value="&lt;b style=&quot;font-size: 14px;&quot;&gt;Asset&lt;br&gt;Importers&lt;/b&gt;" style="whiteSpace=wrap;html=1;aspect=fixed;fillColor=#b0e3e6;strokeColor=#0e8088;strokeWidth=3;" vertex="1" parent="1">
          <mxGeometry x="590" y="665" width="105" height="105" as="geometry" />
        </mxCell>
        <mxCell id="y_wzQ5EHkPusBBxn_sSv-24" value="" style="endArrow=classic;html=1;rounded=0;exitX=0.5;exitY=0;exitDx=0;exitDy=0;" edge="1" parent="1" source="y_wzQ5EHkPusBBxn_sSv-15" target="y_wzQ5EHkPusBBxn_sSv-1">
          <mxGeometry width="50" height="50" relative="1" as="geometry">
            <mxPoint x="400" y="460" as="sourcePoint" />
            <mxPoint x="450" y="410" as="targetPoint" />
          </mxGeometry>
        </mxCell>
        <mxCell id="y_wzQ5EHkPusBBxn_sSv-25" value="&lt;b&gt;LAVA EXE&lt;/b&gt;" style="whiteSpace=wrap;html=1;aspect=fixed;fillColor=#dae8fc;strokeColor=#6c8ebf;strokeWidth=4;" vertex="1" parent="1">
          <mxGeometry x="40" y="840" width="120" height="120" as="geometry" />
        </mxCell>
        <mxCell id="y_wzQ5EHkPusBBxn_sSv-26" value="" style="endArrow=classic;html=1;rounded=0;exitX=0.5;exitY=0;exitDx=0;exitDy=0;entryX=0.088;entryY=1.006;entryDx=0;entryDy=0;entryPerimeter=0;" edge="1" parent="1" source="y_wzQ5EHkPusBBxn_sSv-25" target="y_wzQ5EHkPusBBxn_sSv-15">
          <mxGeometry width="50" height="50" relative="1" as="geometry">
            <mxPoint x="400" y="670" as="sourcePoint" />
            <mxPoint x="450" y="620" as="targetPoint" />
          </mxGeometry>
        </mxCell>
        <mxCell id="y_wzQ5EHkPusBBxn_sSv-28" style="edgeStyle=orthogonalEdgeStyle;rounded=0;orthogonalLoop=1;jettySize=auto;html=1;" edge="1" parent="1" source="y_wzQ5EHkPusBBxn_sSv-27" target="y_wzQ5EHkPusBBxn_sSv-25">
          <mxGeometry relative="1" as="geometry" />
        </mxCell>
        <mxCell id="y_wzQ5EHkPusBBxn_sSv-31" style="edgeStyle=orthogonalEdgeStyle;rounded=0;orthogonalLoop=1;jettySize=auto;html=1;entryX=0;entryY=0.5;entryDx=0;entryDy=0;" edge="1" parent="1" source="y_wzQ5EHkPusBBxn_sSv-27" target="y_wzQ5EHkPusBBxn_sSv-29">
          <mxGeometry relative="1" as="geometry" />
        </mxCell>
        <mxCell id="y_wzQ5EHkPusBBxn_sSv-27" value="&lt;b&gt;Houdini Exporter&lt;/b&gt;" style="whiteSpace=wrap;html=1;aspect=fixed;fillColor=#fff2cc;strokeColor=#d6b656;strokeWidth=4;" vertex="1" parent="1">
          <mxGeometry x="200" y="840" width="120" height="120" as="geometry" />
        </mxCell>
        <mxCell id="y_wzQ5EHkPusBBxn_sSv-30" style="edgeStyle=orthogonalEdgeStyle;rounded=0;orthogonalLoop=1;jettySize=auto;html=1;entryX=1;entryY=0.5;entryDx=0;entryDy=0;" edge="1" parent="1" source="y_wzQ5EHkPusBBxn_sSv-29" target="y_wzQ5EHkPusBBxn_sSv-1">
          <mxGeometry relative="1" as="geometry">
            <Array as="points">
              <mxPoint x="740" y="900" />
              <mxPoint x="740" y="520" />
            </Array>
          </mxGeometry>
        </mxCell>
        <mxCell id="y_wzQ5EHkPusBBxn_sSv-29" value="&lt;b&gt;Texture Converter&lt;/b&gt;" style="whiteSpace=wrap;html=1;aspect=fixed;fillColor=#dae8fc;strokeColor=#6c8ebf;strokeWidth=4;" vertex="1" parent="1">
          <mxGeometry x="600" y="840" width="120" height="120" as="geometry" />
        </mxCell>
      </root>
    </mxGraphModel>
  </diagram>
</mxfile>
